<svg width="8" height="7" viewBox="0 0 8 7" fill="none" xmlns="http://www.w3.org/2000/svg">
<path d="M2.80415 5.09659V1.9517H4.3979C4.52575 1.9517 4.66495 1.98864 4.81552 2.0625C4.96609 2.13352 5.09393 2.24432 5.19904 2.39489C5.307 2.54261 5.36097 2.73011 5.36097 2.95739C5.36097 3.1875 5.30558 3.38352 5.19478 3.54545C5.08398 3.70455 4.94904 3.82528 4.78995 3.90767C4.6337 3.99006 4.48597 4.03125 4.34677 4.03125H3.1962V3.51989H4.1337C4.22745 3.51989 4.3283 3.47301 4.43626 3.37926C4.54705 3.28551 4.60245 3.14489 4.60245 2.95739C4.60245 2.7642 4.54705 2.63352 4.43626 2.56534C4.3283 2.49716 4.23313 2.46307 4.15075 2.46307H3.4945V5.09659H2.80415ZM4.70472 3.61364L5.48881 5.09659H4.73029L3.96325 3.61364H4.70472ZM3.99734 6.97159C3.52575 6.97159 3.08398 6.88352 2.67205 6.70739C2.26012 6.53125 1.8979 6.28693 1.5854 5.97443C1.2729 5.66193 1.02859 5.29972 0.85245 4.88778C0.676314 4.47585 0.588246 4.03409 0.588246 3.5625C0.588246 3.09091 0.676314 2.64915 0.85245 2.23722C1.02859 1.82528 1.2729 1.46307 1.5854 1.15057C1.8979 0.838068 2.26012 0.59375 2.67205 0.417614C3.08398 0.241477 3.52575 0.153409 3.99734 0.153409C4.46893 0.153409 4.91069 0.241477 5.32262 0.417614C5.73455 0.59375 6.09677 0.838068 6.40927 1.15057C6.72177 1.46307 6.96609 1.82528 7.14222 2.23722C7.31836 2.64915 7.40643 3.09091 7.40643 3.5625C7.40643 4.03409 7.31836 4.47585 7.14222 4.88778C6.96609 5.29972 6.72177 5.66193 6.40927 5.97443C6.09677 6.28693 5.73455 6.53125 5.32262 6.70739C4.91069 6.88352 4.46893 6.97159 3.99734 6.97159ZM3.99734 6.15341C4.47461 6.15341 4.90927 6.03693 5.30131 5.80398C5.69336 5.57102 6.00586 5.25852 6.23881 4.86648C6.47177 4.47443 6.58825 4.03977 6.58825 3.5625C6.58825 3.08523 6.47177 2.65057 6.23881 2.25852C6.00586 1.86648 5.69336 1.55398 5.30131 1.32102C4.90927 1.08807 4.47461 0.971591 3.99734 0.971591C3.52006 0.971591 3.0854 1.08807 2.69336 1.32102C2.30131 1.55398 1.98881 1.86648 1.75586 2.25852C1.5229 2.65057 1.40643 3.08523 1.40643 3.5625C1.40643 4.03977 1.5229 4.47443 1.75586 4.86648C1.98881 5.25852 2.30131 5.57102 2.69336 5.80398C3.0854 6.03693 3.52006 6.15341 3.99734 6.15341Z" fill="white"/>
</svg>
